HIERARCHY
ROOT Hips
{
  OFFSET 3.13124 94.3669 -3.18751
  CHANNELS  6 Xposition Yposition Zposition Zrotation Xrotation Yrotation
  JOINT LeftUpLeg
  {
    OFFSET 8.64259 1.95398 -2.38835
    CHANNELS 3 Zrotation Xrotation Yrotation
    JOINT LeftLeg
    {
      OFFSET 43.7702 0 0
      CHANNELS 3 Zrotation Xrotation Yrotation
      JOINT LeftFoot
      {
        OFFSET 40.6238 0 0
        CHANNELS 3 Zrotation Xrotation Yrotation
        JOINT LeftToeBase
        {
          OFFSET 12.7242 0 0
          CHANNELS 3 Zrotation Xrotation Yrotation
          End Site
          {
            OFFSET 0 0 0
          }
        }
      }
    }
  }
  JOINT RightUpLeg
  {
    OFFSET -8.2249 1.95398 -2.59336
    CHANNELS 3 Zrotation Xrotation Yrotation
    JOINT RightLeg
    {
      OFFSET 43.5653 0 0
      CHANNELS 3 Zrotation Xrotation Yrotation
      JOINT RightFoot
      {
        OFFSET 40.6238 0 0
        CHANNELS 3 Zrotation Xrotation Yrotation
        JOINT RightToeBase
        {
          OFFSET 12.7242 0 0
          CHANNELS 3 Zrotation Xrotation Yrotation
          End Site
          {
            OFFSET 0 0 0
          }
        }
      }
    }
  }
  JOINT Spine
  {
    OFFSET 0.165834 0.87714 6.61349
    CHANNELS 3 Zrotation Xrotation Yrotation
    JOINT Spine1
    {
      OFFSET 7.38962 1.71661e-005 0
      CHANNELS 3 Zrotation Xrotation Yrotation
      JOINT Spine2
      {
        OFFSET 11.9445 1.14441e-005 0
        CHANNELS 3 Zrotation Xrotation Yrotation
        JOINT Spine3
        {
          OFFSET 14.7254 4.19617e-005 0
          CHANNELS 3 Zrotation Xrotation Yrotation
          JOINT Spine4
          {
            OFFSET 10.9679 0 0
            CHANNELS 3 Zrotation Xrotation Yrotation
            JOINT RightShoulder
            {
              OFFSET 2.46616 -1.6653 3.69651
              CHANNELS 3 Zrotation Xrotation Yrotation
              JOINT RightArm
              {
                OFFSET 13.0012 0 0
                CHANNELS 3 Zrotation Xrotation Yrotation
                JOINT RightForeArm
                {
                  OFFSET 28.7848 1.52588e-005 0
                  CHANNELS 3 Zrotation Xrotation Yrotation
                  JOINT RightHand
                  {
                    OFFSET 26.5688 1.52588e-005 0
                    CHANNELS 3 Zrotation Xrotation Yrotation
                    End Site
                    {
                      OFFSET 0 0 0
                    }
                  }
                }
              }
            }
            JOINT LeftShoulder
            {
              OFFSET 2.38034 -1.29275 -3.75231
              CHANNELS 3 Zrotation Xrotation Yrotation
              JOINT LeftArm
              {
                OFFSET 16.3182 6.10352e-005 0
                CHANNELS 3 Zrotation Xrotation Yrotation
                JOINT LeftForeArm
                {
                  OFFSET 27.0901 0 0
                  CHANNELS 3 Zrotation Xrotation Yrotation
                  JOINT LeftHand
                  {
                    OFFSET 24.5451 1.52588e-005 0
                    CHANNELS 3 Zrotation Xrotation Yrotation
                    End Site
                    {
                      OFFSET 0 0 0
                    }
                  }
                }
              }
            }
            JOINT Neck
            {
              OFFSET 5.0226 -0.0266342 0
              CHANNELS 3 Zrotation Xrotation Yrotation
              JOINT Head
              {
                OFFSET 6.69363 2.86102e-005 0
                CHANNELS 3 Zrotation Xrotation Yrotation
                End Site
                {
                  OFFSET 0 0 0
                }
              }
            }
          }
        }
      }
    }
  }
}
MOTION
Frames:	16
Frame Time:	0.0333333
58.0009 93.5325 -30.564 101.243 29.8321 83.5587 177.508 13.5471 79.5375 -29.0542 -45.1353 -3.7132 58.5385 2.64738 1.50044 28.7808 3.5309e-006 -7.10152e-006 173.967 13.0664 76.2526 -5.20359 29.0089 1.95475 36.4062 -4.49928 -3.38297 28.7808 1.59635e-005 1.60699e-005 0.110999 7.44754 -91.1253 11.9705 -0.276975 -2.35077 0.297376 -0.380305 -2.33592 -22.2204 0.443157 -2.32803 -2.20774 0.443146 -2.32805 102.493 -3.64426 -81.2836 2.4727 22.3581 9.56932 -3.96386 -3.74688 -13.0379 -7.71882 -0.502364 2.47537 -84.984 -31.7575 83.3206 11.4307 -27.1289 -8.1534 2.64675 16.5826 -3.69899 35.8313 -0.107635 -4.41947 0.944039 32.4775 24.2746 -8.80604 28.622 3.94683 
58.8969 92.1458 -31.3457 101.592 39.4728 81.7083 178.608 16.181 77.1526 -34.4369 -33.9118 -2.40967 59.4422 13.4903 8.29635 28.7808 3.5309e-006 -7.10152e-006 175.197 19.3459 76.4377 -4.94674 28.8552 1.93544 27.7045 2.22446 3.59661 28.7808 1.59635e-005 1.60699e-005 -0.0315902 7.45146 -90.3895 11.9754 -0.0610025 -2.04327 0.302783 -0.150945 -2.0386 -22.2199 0.553598 -1.96723 -2.20726 0.553591 -1.96724 101.71 -4.50865 -83.8268 2.15422 23.327 14.6847 -6.61795 -10.2307 -20.8016 -7.53519 -0.657814 5.36129 -88.0586 -33.6342 78.0403 10.8737 -27.8974 -11.7734 2.64314 16.4552 -3.69535 35.1469 -0.629548 -5.95631 -3.5253 31.3743 25.2344 -7.32182 28.4468 3.99988 
59.7204 91.8456 -31.8146 103.215 49.5126 78.8514 178.694 15.8767 75.5101 -35.8337 -26.6898 -1.72812 60.4668 12.7996 7.70096 28.7808 3.5309e-006 -7.10152e-006 175.807 20.6557 76.9857 -5.31403 33.6796 2.38631 28.8626 7.71911 9.44218 28.7808 1.59635e-005 1.60699e-005 -0.119562 7.54007 -89.8387 11.7985 0.124038 -1.46295 0.126745 0.0607085 -1.46706 -22.4025 0.561131 -1.35768 -2.38983 0.561122 -1.35768 101.487 -8.43585 -84.3603 1.56667 23.7937 13.8353 -8.15104 -14.177 -21.7685 -6.43741 -0.580889 5.77465 -91.153 -34.6085 72.7449 9.6487 -28.2802 -15.0666 2.68341 17.8942 -3.73705 34.7977 -0.768172 -6.38386 -2.38446 30.3392 21.7095 -8.04904 27.5134 4.30561 
60.7313 92.3173 -32.2652 107.643 59.574 73.8129 178.85 14.6497 74.9946 -37.0357 -17.436 -0.919723 58.8247 12.9951 7.97897 28.7808 3.5309e-006 -7.10152e-006 176.366 20.612 78.514 -4.70323 24.8752 1.60158 22.0169 9.55423 12.9836 28.7808 1.59635e-005 1.60699e-005 -0.152488 7.71655 -89.6861 11.4466 0.146772 -1.18084 -0.22488 0.0946891 -1.18612 -22.7564 0.489491 -1.08176 -2.74378 0.489487 -1.08178 100.958 -10.9535 -85.7644 2.16809 24.3227 14.3913 -7.67776 -10.6542 -25.2386 -9.05013 -0.840647 6.05157 -94.9205 -37.0519 67.0667 6.85611 -28.1629 -19.5352 2.61555 15.4386 -3.6666 34.2022 -0.56131 -5.79541 -1.50095 28.9782 20.2782 -7.93254 26.2057 3.02629 
62.1242 93.2355 -32.8825 116.002 70.4803 65.9196 179.364 14.0441 76.3088 -38.7078 -9.31299 -0.331321 56.3686 9.86894 6.19044 28.7808 3.5309e-006 -7.10152e-006 177.438 19.6542 80.8244 -4.63817 23.6835 1.5073 20.2855 16.8756 22.4225 28.7808 1.59635e-005 1.60699e-005 -0.285121 7.7879 -89.6199 11.2986 -0.0788818 -1.41063 -0.37314 -0.141179 -1.40659 -22.9023 0.350625 -1.37552 -2.8897 0.350622 -1.37553 100.21 -12.2868 -87.7527 2.78904 23.8394 13.919 -7.53523 -11.1044 -23.7537 -10.7457 -0.312203 -1.82499 -99.466 -40.3899 60.964 4.08941 -27.3493 -21.7959 2.74784 20.0969 -3.80371 30.6025 -1.74996 -9.97414 -2.07509 27.2659 20.3291 -6.90285 24.6597 1.86668 
63.593 94.61 -33.732 149.211 80.9817 33.1736 179.53 12.8144 78.0783 -38.8096 -0.92016 0.215232 52.5641 8.88863 5.80676 28.7808 3.5309e-006 -7.10152e-006 178.232 17.9607 82.8946 -4.53882 21.7624 1.36019 20.6934 20.9898 27.2255 28.7808 1.59635e-005 1.60699e-005 -0.495406 7.80339 -89.6935 11.2561 -0.579888 -1.40968 -0.41542 -0.641192 -1.38038 -22.9446 -0.130874 -1.51212 -2.93198 -0.130878 -1.51213 99.0925 -17.5002 -90.0147 1.326 22.8874 7.52653 -5.52395 -13.0097 -12.4297 -15.8055 0.209331 -6.90227 -103.943 -42.3438 54.8861 -0.738651 -25.4938 -24.8663 2.74696 20.0675 -3.80278 32.3138 -0.800688 -6.63841 -0.356304 25.6344 17.6745 -7.58304 23.0912 0.548938 
65.0105 96.1195 -34.7012 -127.322 79.1517 -50.3692 179.174 9.74194 80.0394 -33.9314 13.0385 0.989733 49.361 14.4646 10.2644 28.7808 3.5309e-006 -7.10152e-006 178.77 16.804 84.8711 -4.18631 13.3849 0.777697 21.336 19.0468 24.5535 28.7808 1.59635e-005 1.60699e-005 -0.584964 7.7206 -89.8377 11.4175 -0.913771 -1.23117 -0.253645 -0.96691 -1.19052 -22.785 -0.502642 -1.4443 -2.7724 -0.502645 -1.44433 97.8731 -20.5945 -92.3941 1.155 21.7931 4.33817 -3.82257 -13.2932 -4.88898 -19.0632 0.513006 -8.45047 -108.686 -43.2064 48.2386 -4.72105 -23.4331 -25.3453 2.78381 21.2715 -3.84095 32.5112 -0.619994 -6.05649 0.916066 23.3685 14.2827 -7.81569 21.1076 0.337435 
66.3492 97.0654 -36.1452 -103.86 67.7373 -73.2991 179.351 8.89044 81.4063 -33.281 15.7523 1.13273 46.4007 13.2594 9.81157 28.7808 3.5309e-006 -7.10152e-006 179.726 15.4401 87.4686 -3.986 6.47501 0.350497 23.2896 19.0429 23.8157 28.7808 1.59635e-005 1.60699e-005 -0.615161 7.64676 -89.9774 11.5635 -1.08832 -1.27474 -0.107557 -1.14315 -1.22424 -22.6394 -0.65672 -1.54429 -2.62679 -0.656734 -1.54433 97.3542 -23.0312 -93.1832 0.895437 21.9201 4.09463 -4.03152 -18.0779 -4.93259 -21.888 0.428598 -7.51434 -112.944 -44.0588 42.5761 -8.04275 -21.5457 -24.6388 2.82269 22.5099 -3.88093 33.5065 -0.841511 -6.68743 2.42451 21.4126 11.9587 -7.70264 19.309 0.0248328 
67.4056 97.4788 -37.7573 -96.7117 57.317 -79.7876 179.86 9.22168 83.2576 -34.3289 19.1008 1.35039 45.9419 11.5508 8.47607 28.7808 3.5309e-006 -7.10152e-006 -179.152 14.9025 90.1438 -3.82409 -3.1923 -0.198638 25.213 20.3452 24.4294 28.7808 1.59635e-005 1.60699e-005 -0.483823 7.5587 -89.9518 11.7418 -0.802076 -1.53834 0.070208 -0.868994 -1.50155 -22.4581 -0.302755 -1.70823 -2.44543 -0.302736 -1.70823 96.9957 -24.4305 -93.7085 0.929195 22.0697 3.11251 -4.09929 -19.6094 -4.94505 -23.3657 0.0358032 -5.421 -115.833 -45.2568 39.2607 -11.7165 -19.5306 -24.1374 2.74397 19.9672 -3.7997 34.8495 -1.26458 -7.86443 4.89774 21.0582 10.9254 -8.34991 18.8265 0.6724 
68.1557 98.0871 -39.4662 -92.6179 45.8797 -84.114 179.903 9.16458 83.9327 -33.8082 20.965 1.43613 44.3698 10.5614 7.87367 28.7808 3.5309e-006 -7.10152e-006 -178.729 14.7097 90.9925 -3.9998 6.99457 0.378495 19.0576 16.1559 22.0542 28.7808 1.59635e-005 1.60699e-005 -0.338029 7.47421 -90.1996 11.918 -0.667789 -1.7039 0.246137 -0.74215 -1.6729 -22.2802 -0.124892 -1.82548 -2.2675 -0.124913 -1.8255 96.9062 -24.6607 -93.8599 1.35708 22.086 2.71812 -4.46671 -25.0879 -5.29827 -26.5728 -0.400373 -3.217 -117.8 -46.0825 37.0858 -14.8324 -17.7935 -22.511 2.74732 20.0798 -3.80318 36.2917 -0.291621 -4.94352 5.77277 23.3557 15.1768 -6.56206 20.2527 -0.638687 
68.6591 98.7622 -41.1804 -90.8898 34.931 -86.7193 179.685 8.13166 84.3762 -31.7694 22.9338 1.48713 43.3908 8.1688 6.02018 28.7808 3.5309e-006 -7.10152e-006 -178.909 13.5315 91.0514 -3.99568 6.61276 0.354068 18.1583 10.2162 14.9278 28.7808 1.59635e-005 1.60699e-005 -0.0572837 7.44616 -90.6122 11.9735 -0.351197 -1.91466 0.301264 -0.435069 -1.89675 -22.2227 0.239993 -1.93626 -2.21 0.239974 -1.93629 97.3083 -23.3488 -93.2229 1.30241 25.6535 11.6434 -17.9214 -29.0587 -30.7915 -10.1895 -1.1931 8.45914 -120.118 -47.1419 34.6521 -15.666 -17.2628 -19.318 2.7129 18.9163 -3.76758 34.8985 -0.639258 -5.99831 2.03211 26.6252 24.3381 -0.000840864 22.4936 -3.61205 
68.8637 99.2249 -42.8112 -90.5976 24.7434 -88.3582 179.51 7.03551 84.7263 -30.6913 25.4314 1.56218 42.4565 7.62736 5.68106 28.7808 3.5309e-006 -7.10152e-006 -179.815 12.876 89.5036 -5.15712 13.0431 0.754939 20.0654 6.59726 9.77562 28.7808 1.59635e-005 1.60699e-005 0.128902 7.44496 -90.9003 11.9782 -0.121187 -1.63399 0.306248 -0.192774 -1.62623 -22.2211 0.373911 -1.59307 -2.20841 0.373893 -1.59308 96.7133 -23.8053 -94.4818 3.71162 24.0176 5.32648 -13.5783 -30.1966 -22.3542 -17.051 -1.40018 4.38721 -119.158 -47.314 36.007 -15.4081 -17.2737 -15.7909 2.70544 18.6618 -3.75989 37.5243 0.233519 -3.47098 0.142915 30.8718 24.2821 0.652277 27.2859 1.09356 
68.9783 99.5411 -44.4165 -89.8592 15.366 -89.5338 179.798 7.40881 85.9393 -30.5309 27.9664 1.69492 42.4221 6.00844 4.30405 28.7808 3.5309e-006 -7.10152e-006 179.485 12.3535 87.8796 -5.87047 17.3086 1.04223 21.9562 6.54892 9.39994 28.7808 1.59635e-005 1.60699e-005 0.377655 7.34476 -90.9778 12.1825 0.392294 -1.7448 0.510424 0.315123 -1.76035 -22.0174 0.898455 -1.54631 -2.00472 0.89845 -1.54633 96.1661 -22.0923 -96.1342 5.6379 23.7635 5.62442 -17.6705 -34.8237 -26.6702 -12.8591 -1.33287 7.21622 -119.288 -48.7379 36.6784 -13.0656 -18.1885 -13.0973 2.67109 17.4588 -3.72425 41.2511 -0.21911 -4.69809 -4.07717 33.0368 29.1978 3.20641 29.7927 0.0742623 
69.103 99.8709 -45.7865 -88.9509 10.1727 -90.3114 179.856 8.06239 86.4218 -29.6247 19.2128 1.22648 43.1421 1.06665 0.0954169 28.7808 3.5309e-006 -7.10152e-006 179.146 11.6868 86.9276 -4.42991 17.3637 1.03947 21.5409 7.42014 10.5337 28.7808 1.59635e-005 1.60699e-005 0.992365 7.21512 -90.7396 12.4604 1.65407 -1.91461 0.788914 1.56818 -1.98552 -21.7481 2.15296 -1.33019 -1.73542 2.15292 -1.33021 95.3605 -20.3694 -98.5701 9.56024 22.859 1.7413 -15.095 -27.4378 -26.9333 -10.579 -1.8879 16.0529 -117.321 -50.0835 40.0616 -9.99059 -19.4201 -12.2912 2.60847 15.1703 -3.6593 37.168 -0.22717 -4.74535 -5.71657 33.1068 32.8109 5.41119 29.8569 -3.73087 
69.3556 100.152 -47.2518 -88.8342 5.71907 -91.2362 179.483 8.33919 85.476 -30.0225 4.70878 0.450975 43.4613 0.349748 -0.489845 28.7808 3.5309e-006 -7.10152e-006 178.935 11.3057 86.2932 -4.45843 20.0657 1.2308 21.4235 7.50165 10.6511 28.7808 1.59635e-005 1.60699e-005 1.9634 6.94735 -90.668 13.0299 3.60318 -2.15046 1.36188 3.50508 -2.30705 -21.2106 4.08267 -0.949214 -1.19798 4.0827 -0.949229 95.8254 -13.461 -99.6203 16.7545 19.1806 0.892649 -11.15 -22.4808 -22.3996 -16.3492 -1.72261 7.02945 -116.634 -47.0893 39.3062 -8.26492 -19.9436 -10.3993 2.58784 14.3889 -3.63789 35.2994 1.39626 -0.0204223 -14.0242 26.5719 36.9119 12.5589 24.8401 -7.69077 
69.7184 100.216 -48.7575 -89.5422 0.585061 -91.0023 179.22 9.51729 84.1641 -34.4526 -10.498 -0.364725 44.563 2.20835 1.10479 28.7808 3.5309e-006 -7.10152e-006 178.881 10.6642 86.2684 -5.84408 24.2645 1.55482 23.1024 6.89632 9.56867 28.7808 1.59635e-005 1.60699e-005 1.5218 7.19972 -90.7522 12.4984 2.76728 -1.61772 0.829194 2.6934 -1.73798 -21.7272 3.12543 -0.710632 -1.71457 3.12541 -0.710651 91.4723 -19.9957 -107.835 12.04 20.4898 -17.5996 -4.39536 -25.114 -5.1014 -18.4063 -0.498018 -2.00237 -107.922 -50.4859 52.9344 -3.85429 -21.8441 -11.5622 2.66032 17.0917 -3.7119 37.1901 1.92039 1.19038 -0.55332 32.3445 29.1719 1.98592 28.0492 -6.94117 
